<svg version="1" xmlns="http://www.w3.org/2000/svg" width="682.667" height="682.667" viewBox="0 0 512.000000 512.000000"><path d="M246.5.7c-64.2 2.4-125.3 29.1-171 74.8-35.2 35.1-59.6 80.2-69.6 128-6.7 32.3-6.8 71.1-.3 103.5 9.7 48 34.7 94.4 69.9 129.5 19.3 19.3 40.8 34.9 64.6 47 37.3 19 73.3 27.5 115.6 27.6 19.7 0 28.4-.8 48.6-4.2 47.5-8 96.8-33.9 132.1-69.4 52.4-52.7 78.1-119.9 74.4-195.3-2.1-45.2-16.6-89.1-41.8-126.9-32-48-77.4-83-132.1-101.7C318.3 7.3 293.6 2.5 275 1.5 255.8.5 253.5.4 246.5.7zm3.5 140.7v25.3l-5.9.7c-21.8 2.5-44.8 15.6-58.6 33.6-12.5 16.2-18.5 34.1-18.5 55 0 17 4.3 32.8 12.6 46.3l3.7 5.9-17.9 17.9c-9.8 9.8-18.2 17.9-18.6 17.9-.4 0-3.6-4.4-7.2-9.8-10.5-15.8-17.4-32-21.3-50.2-2.6-12.1-2.6-43.9 0-56 12.2-57 56.5-100 113.7-110.5 4.1-.7 9.9-1.4 12.8-1.4l5.2-.1v25.4zm29.1-23.9c19.8 3.4 39.1 11.1 55.8 22.3 11.7 7.8 29.1 25.3 37 37.1 10.7 16.2 18.6 35.3 22.2 53.6 2.1 10.7 1.9 41.8-.4 52.5-4.6 21.6-14.4 43-27.2 59.5-1.5 1.9-2.3 1.2-19.7-16.2l-18.1-18.1 3.7-5.9c13.5-21.9 16.5-51.3 7.6-76.7-10.6-30.7-40.1-54.4-72.2-58.2l-5.8-.7v-17.1c0-9.4-.3-20.8-.7-25.4l-.6-8.2h5c2.8 0 8.8.7 13.4 1.5zm-29.1 80v19.4l-4.2 1.2c-10.8 2.8-20.8 11.3-25.5 21.6-3.2 7-4.1 17.7-2.3 26.4l1.3 6.1-13.6 13.6c-11 11-13.8 13.3-15 12.4-2.1-1.7-8.4-15.8-10.4-23.2-1.3-4.8-1.8-10-1.7-20 0-12.5.3-14.2 3.3-23 9.2-27.1 30.8-46.5 58.6-52.5 10.5-2.3 9.5-4.1 9.5 18zm21.5-18c29.5 6.1 51.8 27.5 60.6 58.5.8 2.6 1.3 10 1.3 17.5.1 15.5-1.4 21.8-8 35.4l-4.6 9.4-14.4-14.4-14.4-14.4 1.6-4.5c2.4-6.9 1.5-19.9-1.8-27.2-4.8-10.4-14.8-18.9-25.5-21.7l-4.3-1.2v-19.4c0-12.9.4-19.5 1-19.5s4.4.7 8.5 1.5zm-8.1 49.9c10.4 3.2 17.3 10.6 19.7 21.3 3.2 14.2-6.9 29.3-21.7 32.3-19 4-36.7-13.7-32.5-32.5 3.6-16.1 19.3-25.7 34.5-21.1zm-35.3 54.2c2.6 3.2 10.4 7.8 16.1 9.6 13.6 4.2 28.2.9 38.8-8.8l2.6-2.4 13.8 13.9 13.8 13.9-6.7 5.6c-8.5 6.9-19.7 12.8-30.1 15.8-10.3 2.9-29.5 3.2-39.4.5-12.3-3.3-29.7-13.1-36.4-20.6l-2-2.2 13.4-13.4c7.4-7.4 13.8-13.5 14.1-13.5.4 0 1.2.7 2 1.6zm-20.3 47.5c33.1 21.7 78.8 17.8 108.8-9.4l5.1-4.6 17.9 18 17.9 18-5.5 5.1c-42 38.4-100.2 48.6-151.5 26.5-14.5-6.2-33.7-18.9-42.5-28.1l-3.4-3.6 17.9-18 17.8-17.9 5.1 4.6c2.8 2.6 8.4 6.8 12.4 9.4z"/></svg>